<mxfile host="app.diagrams.net" modified="2022-01-25T01:27:25.010Z" agent="5.0 (Windows NT 10.0; Win64; x64) AppleWebKit/537.36 (KHTML, like Gecko) Chrome/97.0.4692.71 Safari/537.36" etag="j6LEitMA2pragSYNCxrG" version="16.4.5" type="github">
  <diagram id="sPEsnOo3S4FkvqUI1rY6" name="Page-1">
    <mxGraphModel dx="868" dy="450" grid="1" gridSize="10" guides="1" tooltips="1" connect="1" arrows="1" fold="1" page="1" pageScale="1" pageWidth="850" pageHeight="1100" math="0" shadow="0">
      <root>
        <mxCell id="0" />
        <mxCell id="1" parent="0" />
        <mxCell id="ghJ-c5clW2DO1FqXFr9V-23" value="" style="rounded=0;whiteSpace=wrap;html=1;fontSize=14;" vertex="1" parent="1">
          <mxGeometry x="30" y="30" width="790" height="680" as="geometry" />
        </mxCell>
        <mxCell id="ghJ-c5clW2DO1FqXFr9V-1" value="月" style="text;html=1;strokeColor=none;fillColor=none;align=left;verticalAlign=middle;whiteSpace=wrap;rounded=0;fontSize=14;" vertex="1" parent="1">
          <mxGeometry x="40" y="180" width="90" height="30" as="geometry" />
        </mxCell>
        <mxCell id="ghJ-c5clW2DO1FqXFr9V-2" value="PC使える" style="text;html=1;strokeColor=none;fillColor=none;align=left;verticalAlign=middle;whiteSpace=wrap;rounded=0;fontSize=14;" vertex="1" parent="1">
          <mxGeometry x="80" y="180" width="190" height="30" as="geometry" />
        </mxCell>
        <mxCell id="ghJ-c5clW2DO1FqXFr9V-3" value="PC使えない" style="text;html=1;strokeColor=none;fillColor=none;align=left;verticalAlign=middle;whiteSpace=wrap;rounded=0;fontSize=14;" vertex="1" parent="1">
          <mxGeometry x="80" y="225" width="190" height="30" as="geometry" />
        </mxCell>
        <mxCell id="ghJ-c5clW2DO1FqXFr9V-4" value="日" style="text;html=1;strokeColor=none;fillColor=none;align=left;verticalAlign=middle;whiteSpace=wrap;rounded=0;fontSize=14;" vertex="1" parent="1">
          <mxGeometry x="40" y="80" width="90" height="30" as="geometry" />
        </mxCell>
        <mxCell id="ghJ-c5clW2DO1FqXFr9V-5" value="PC使える" style="text;html=1;strokeColor=none;fillColor=none;align=left;verticalAlign=middle;whiteSpace=wrap;rounded=0;fontSize=14;" vertex="1" parent="1">
          <mxGeometry x="80" y="80" width="190" height="30" as="geometry" />
        </mxCell>
        <mxCell id="ghJ-c5clW2DO1FqXFr9V-6" value="PC使えない" style="text;html=1;strokeColor=none;fillColor=none;align=left;verticalAlign=middle;whiteSpace=wrap;rounded=0;fontSize=14;" vertex="1" parent="1">
          <mxGeometry x="80" y="130" width="190" height="30" as="geometry" />
        </mxCell>
        <mxCell id="ghJ-c5clW2DO1FqXFr9V-7" value="水" style="text;html=1;strokeColor=none;fillColor=none;align=left;verticalAlign=middle;whiteSpace=wrap;rounded=0;fontSize=14;" vertex="1" parent="1">
          <mxGeometry x="40" y="380" width="90" height="30" as="geometry" />
        </mxCell>
        <mxCell id="ghJ-c5clW2DO1FqXFr9V-10" value="火" style="text;html=1;strokeColor=none;fillColor=none;align=left;verticalAlign=middle;whiteSpace=wrap;rounded=0;fontSize=14;" vertex="1" parent="1">
          <mxGeometry x="40" y="280" width="90" height="30" as="geometry" />
        </mxCell>
        <mxCell id="ghJ-c5clW2DO1FqXFr9V-13" value="木" style="text;html=1;strokeColor=none;fillColor=none;align=left;verticalAlign=middle;whiteSpace=wrap;rounded=0;fontSize=14;" vertex="1" parent="1">
          <mxGeometry x="40" y="517" width="90" height="30" as="geometry" />
        </mxCell>
        <mxCell id="ghJ-c5clW2DO1FqXFr9V-16" value="金" style="text;html=1;strokeColor=none;fillColor=none;align=left;verticalAlign=middle;whiteSpace=wrap;rounded=0;fontSize=14;" vertex="1" parent="1">
          <mxGeometry x="40" y="590" width="90" height="30" as="geometry" />
        </mxCell>
        <mxCell id="ghJ-c5clW2DO1FqXFr9V-17" value="-" style="text;html=1;strokeColor=none;fillColor=none;align=left;verticalAlign=middle;whiteSpace=wrap;rounded=0;fontSize=14;" vertex="1" parent="1">
          <mxGeometry x="130" y="590" width="40" height="30" as="geometry" />
        </mxCell>
        <mxCell id="ghJ-c5clW2DO1FqXFr9V-19" value="土" style="text;html=1;strokeColor=none;fillColor=none;align=left;verticalAlign=middle;whiteSpace=wrap;rounded=0;fontSize=14;" vertex="1" parent="1">
          <mxGeometry x="40" y="660" width="90" height="30" as="geometry" />
        </mxCell>
        <mxCell id="ghJ-c5clW2DO1FqXFr9V-22" value="勉強出来る時間最大" style="text;html=1;strokeColor=none;fillColor=none;align=left;verticalAlign=middle;whiteSpace=wrap;rounded=0;fontSize=14;" vertex="1" parent="1">
          <mxGeometry x="190" y="40" width="170" height="30" as="geometry" />
        </mxCell>
        <mxCell id="ghJ-c5clW2DO1FqXFr9V-24" value="積み上げ報告時間" style="text;html=1;strokeColor=none;fillColor=none;align=left;verticalAlign=middle;whiteSpace=wrap;rounded=0;fontSize=14;" vertex="1" parent="1">
          <mxGeometry x="550" y="40" width="170" height="30" as="geometry" />
        </mxCell>
        <mxCell id="ghJ-c5clW2DO1FqXFr9V-27" value="" style="endArrow=none;html=1;rounded=0;fontSize=14;entryX=0.077;entryY=0;entryDx=0;entryDy=0;entryPerimeter=0;exitX=0.08;exitY=1.003;exitDx=0;exitDy=0;exitPerimeter=0;" edge="1" parent="1">
          <mxGeometry width="50" height="50" relative="1" as="geometry">
            <mxPoint x="72.20000000000005" y="712.04" as="sourcePoint" />
            <mxPoint x="69.83000000000004" y="30" as="targetPoint" />
            <Array as="points">
              <mxPoint x="70" y="190" />
            </Array>
          </mxGeometry>
        </mxCell>
        <mxCell id="ghJ-c5clW2DO1FqXFr9V-28" value="" style="endArrow=none;html=1;rounded=0;fontSize=14;entryX=1.003;entryY=0.913;entryDx=0;entryDy=0;entryPerimeter=0;" edge="1" parent="1">
          <mxGeometry width="50" height="50" relative="1" as="geometry">
            <mxPoint x="30" y="638" as="sourcePoint" />
            <mxPoint x="822.3699999999999" y="638.8400000000001" as="targetPoint" />
          </mxGeometry>
        </mxCell>
        <mxCell id="ghJ-c5clW2DO1FqXFr9V-29" value="" style="endArrow=none;html=1;rounded=0;fontSize=14;entryX=1.003;entryY=0.913;entryDx=0;entryDy=0;entryPerimeter=0;" edge="1" parent="1">
          <mxGeometry width="50" height="50" relative="1" as="geometry">
            <mxPoint x="30" y="578" as="sourcePoint" />
            <mxPoint x="822.3699999999999" y="578.8400000000001" as="targetPoint" />
          </mxGeometry>
        </mxCell>
        <mxCell id="ghJ-c5clW2DO1FqXFr9V-30" value="" style="endArrow=none;html=1;rounded=0;fontSize=14;entryX=1.003;entryY=0.913;entryDx=0;entryDy=0;entryPerimeter=0;" edge="1" parent="1">
          <mxGeometry width="50" height="50" relative="1" as="geometry">
            <mxPoint x="30" y="468" as="sourcePoint" />
            <mxPoint x="822.3699999999999" y="468.84000000000015" as="targetPoint" />
          </mxGeometry>
        </mxCell>
        <mxCell id="ghJ-c5clW2DO1FqXFr9V-31" value="" style="endArrow=none;html=1;rounded=0;fontSize=14;entryX=1.003;entryY=0.913;entryDx=0;entryDy=0;entryPerimeter=0;" edge="1" parent="1">
          <mxGeometry width="50" height="50" relative="1" as="geometry">
            <mxPoint x="70" y="525" as="sourcePoint" />
            <mxPoint x="822.3699999999999" y="524.8400000000001" as="targetPoint" />
          </mxGeometry>
        </mxCell>
        <mxCell id="ghJ-c5clW2DO1FqXFr9V-32" value="" style="endArrow=none;html=1;rounded=0;fontSize=14;entryX=0.077;entryY=0;entryDx=0;entryDy=0;entryPerimeter=0;exitX=0.08;exitY=1.003;exitDx=0;exitDy=0;exitPerimeter=0;" edge="1" parent="1">
          <mxGeometry width="50" height="50" relative="1" as="geometry">
            <mxPoint x="172.20000000000005" y="712.04" as="sourcePoint" />
            <mxPoint x="169.83000000000004" y="30" as="targetPoint" />
            <Array as="points">
              <mxPoint x="170" y="190" />
            </Array>
          </mxGeometry>
        </mxCell>
        <mxCell id="ghJ-c5clW2DO1FqXFr9V-33" value="" style="endArrow=none;html=1;rounded=0;fontSize=14;entryX=1.003;entryY=0.913;entryDx=0;entryDy=0;entryPerimeter=0;" edge="1" parent="1">
          <mxGeometry width="50" height="50" relative="1" as="geometry">
            <mxPoint x="30" y="368" as="sourcePoint" />
            <mxPoint x="822.3699999999999" y="368.84000000000015" as="targetPoint" />
          </mxGeometry>
        </mxCell>
        <mxCell id="ghJ-c5clW2DO1FqXFr9V-34" value="" style="endArrow=none;html=1;rounded=0;fontSize=14;entryX=1.003;entryY=0.913;entryDx=0;entryDy=0;entryPerimeter=0;" edge="1" parent="1">
          <mxGeometry width="50" height="50" relative="1" as="geometry">
            <mxPoint x="70" y="420" as="sourcePoint" />
            <mxPoint x="822.3699999999999" y="419.84000000000015" as="targetPoint" />
          </mxGeometry>
        </mxCell>
        <mxCell id="ghJ-c5clW2DO1FqXFr9V-35" value="" style="endArrow=none;html=1;rounded=0;fontSize=14;entryX=1.003;entryY=0.913;entryDx=0;entryDy=0;entryPerimeter=0;" edge="1" parent="1">
          <mxGeometry width="50" height="50" relative="1" as="geometry">
            <mxPoint x="30" y="258" as="sourcePoint" />
            <mxPoint x="822.3699999999999" y="258.84000000000015" as="targetPoint" />
          </mxGeometry>
        </mxCell>
        <mxCell id="ghJ-c5clW2DO1FqXFr9V-36" value="" style="endArrow=none;html=1;rounded=0;fontSize=14;entryX=1.003;entryY=0.913;entryDx=0;entryDy=0;entryPerimeter=0;" edge="1" parent="1">
          <mxGeometry width="50" height="50" relative="1" as="geometry">
            <mxPoint x="70" y="316" as="sourcePoint" />
            <mxPoint x="822.3699999999999" y="315.84000000000015" as="targetPoint" />
          </mxGeometry>
        </mxCell>
        <mxCell id="ghJ-c5clW2DO1FqXFr9V-37" value="" style="endArrow=none;html=1;rounded=0;fontSize=14;entryX=1.003;entryY=0.913;entryDx=0;entryDy=0;entryPerimeter=0;" edge="1" parent="1">
          <mxGeometry width="50" height="50" relative="1" as="geometry">
            <mxPoint x="30" y="166" as="sourcePoint" />
            <mxPoint x="822.3699999999999" y="166.84000000000015" as="targetPoint" />
          </mxGeometry>
        </mxCell>
        <mxCell id="ghJ-c5clW2DO1FqXFr9V-38" value="" style="endArrow=none;html=1;rounded=0;fontSize=14;entryX=1.003;entryY=0.913;entryDx=0;entryDy=0;entryPerimeter=0;" edge="1" parent="1">
          <mxGeometry width="50" height="50" relative="1" as="geometry">
            <mxPoint x="70" y="216" as="sourcePoint" />
            <mxPoint x="822.3699999999999" y="215.84000000000015" as="targetPoint" />
          </mxGeometry>
        </mxCell>
        <mxCell id="ghJ-c5clW2DO1FqXFr9V-39" value="" style="endArrow=none;html=1;rounded=0;fontSize=14;entryX=1.003;entryY=0.913;entryDx=0;entryDy=0;entryPerimeter=0;" edge="1" parent="1">
          <mxGeometry width="50" height="50" relative="1" as="geometry">
            <mxPoint x="30" y="73" as="sourcePoint" />
            <mxPoint x="822.3699999999999" y="73.84000000000015" as="targetPoint" />
          </mxGeometry>
        </mxCell>
        <mxCell id="ghJ-c5clW2DO1FqXFr9V-40" value="" style="endArrow=none;html=1;rounded=0;fontSize=14;entryX=1.003;entryY=0.913;entryDx=0;entryDy=0;entryPerimeter=0;" edge="1" parent="1">
          <mxGeometry width="50" height="50" relative="1" as="geometry">
            <mxPoint x="70" y="123" as="sourcePoint" />
            <mxPoint x="822.3699999999999" y="122.84000000000015" as="targetPoint" />
          </mxGeometry>
        </mxCell>
        <mxCell id="ghJ-c5clW2DO1FqXFr9V-41" value="パターン" style="text;html=1;strokeColor=none;fillColor=none;align=left;verticalAlign=middle;whiteSpace=wrap;rounded=0;fontSize=14;" vertex="1" parent="1">
          <mxGeometry x="90" y="40" width="170" height="30" as="geometry" />
        </mxCell>
        <mxCell id="ghJ-c5clW2DO1FqXFr9V-42" value="やる内容" style="text;html=1;strokeColor=none;fillColor=none;align=left;verticalAlign=middle;whiteSpace=wrap;rounded=0;fontSize=14;" vertex="1" parent="1">
          <mxGeometry x="370" y="40" width="170" height="30" as="geometry" />
        </mxCell>
        <mxCell id="ghJ-c5clW2DO1FqXFr9V-43" value="PC使える" style="text;html=1;strokeColor=none;fillColor=none;align=left;verticalAlign=middle;whiteSpace=wrap;rounded=0;fontSize=14;" vertex="1" parent="1">
          <mxGeometry x="80" y="273" width="190" height="30" as="geometry" />
        </mxCell>
        <mxCell id="ghJ-c5clW2DO1FqXFr9V-44" value="PC使えない" style="text;html=1;strokeColor=none;fillColor=none;align=left;verticalAlign=middle;whiteSpace=wrap;rounded=0;fontSize=14;" vertex="1" parent="1">
          <mxGeometry x="80" y="325" width="190" height="30" as="geometry" />
        </mxCell>
        <mxCell id="ghJ-c5clW2DO1FqXFr9V-45" value="PC使える" style="text;html=1;strokeColor=none;fillColor=none;align=left;verticalAlign=middle;whiteSpace=wrap;rounded=0;fontSize=14;" vertex="1" parent="1">
          <mxGeometry x="80" y="380" width="190" height="30" as="geometry" />
        </mxCell>
        <mxCell id="ghJ-c5clW2DO1FqXFr9V-46" value="PC使えない" style="text;html=1;strokeColor=none;fillColor=none;align=left;verticalAlign=middle;whiteSpace=wrap;rounded=0;fontSize=14;" vertex="1" parent="1">
          <mxGeometry x="80" y="430" width="190" height="30" as="geometry" />
        </mxCell>
        <mxCell id="ghJ-c5clW2DO1FqXFr9V-47" value="PC使える" style="text;html=1;strokeColor=none;fillColor=none;align=left;verticalAlign=middle;whiteSpace=wrap;rounded=0;fontSize=14;" vertex="1" parent="1">
          <mxGeometry x="80" y="482" width="190" height="30" as="geometry" />
        </mxCell>
        <mxCell id="ghJ-c5clW2DO1FqXFr9V-48" value="PC使えない" style="text;html=1;strokeColor=none;fillColor=none;align=left;verticalAlign=middle;whiteSpace=wrap;rounded=0;fontSize=14;" vertex="1" parent="1">
          <mxGeometry x="80" y="535" width="190" height="30" as="geometry" />
        </mxCell>
      </root>
    </mxGraphModel>
  </diagram>
</mxfile>
